<svg data-v-423bf9ae="" xmlns="http://www.w3.org/2000/svg" viewBox="0 0 481 90" class="iconLeft"><!----><!----><!----><g data-v-423bf9ae="" id="3c488859-6594-4ff2-8860-d0f7761756e7" fill="#ffffff" transform="matrix(6.659267311411173,0,0,6.659267311411173,107.56729292028115,-16.431738882179374)"><path d="M4.25 6.55C2.17 6.55 0.68 8.20 0.68 10.14C0.68 12.09 2.17 13.73 4.25 13.73C5.25 13.73 6.03 13.33 6.30 13.06L6.30 11.92C5.78 12.30 5.17 12.63 4.25 12.63C2.79 12.63 1.85 11.47 1.85 10.14C1.85 8.82 2.79 7.64 4.25 7.64C5.17 7.64 5.78 7.97 6.30 8.35L6.30 7.22C6.03 6.96 5.25 6.55 4.25 6.55ZM11.24 6.55C9.16 6.55 7.67 8.20 7.67 10.14C7.67 12.09 9.16 13.73 11.24 13.73C13.32 13.73 14.81 12.09 14.81 10.14C14.81 8.20 13.32 6.55 11.24 6.55ZM11.24 7.64C12.70 7.64 13.64 8.82 13.64 10.14C13.64 11.47 12.70 12.63 11.24 12.63C9.78 12.63 8.83 11.47 8.83 10.14C8.83 8.82 9.78 7.64 11.24 7.64ZM24.54 6.55C23.53 6.55 22.83 7.19 22.19 7.94C21.72 7.01 20.81 6.55 19.82 6.55C18.89 6.55 18.21 7.07 17.77 7.56L17.77 6.69L16.65 6.69L16.65 13.52L17.77 13.52L17.77 8.76C18.28 8.15 18.88 7.64 19.63 7.64C20.71 7.64 21.36 8.29 21.36 9.46L21.37 13.52L22.49 13.52L22.49 8.87C23.01 8.22 23.56 7.64 24.35 7.64C25.43 7.64 26.07 8.29 26.07 9.46L26.09 13.52L27.21 13.52L27.21 9.35C27.21 7.46 25.94 6.55 24.54 6.55ZM32.68 6.55C31.75 6.55 30.87 7.23 30.45 7.77L30.45 6.69L29.33 6.69L29.33 13.52L30.45 13.52L30.45 8.98C30.99 8.27 31.76 7.64 32.48 7.64C33.56 7.64 34.07 8.29 34.07 9.46L34.08 13.52L35.21 13.52L35.21 9.35C35.21 7.46 34.07 6.55 32.68 6.55ZM43.29 9.87C43.29 8.00 42.25 6.55 40.14 6.55C38.21 6.55 36.85 8.20 36.85 10.14C36.85 12.09 38.34 13.73 40.41 13.73C41.48 13.73 42.19 13.26 42.46 12.99L42.46 11.85C42.01 12.18 41.40 12.63 40.41 12.63C39.10 12.63 38.20 11.69 38.04 10.54L43.29 10.54ZM38.06 9.58C38.25 8.50 39.02 7.64 40.14 7.64C41.10 7.64 42.04 8.26 42.18 9.58ZM48.22 6.55C46.14 6.55 44.65 8.20 44.65 10.14C44.65 12.09 46.14 13.73 48.22 13.73C49.22 13.73 50.00 13.33 50.27 13.06L50.27 11.92C49.75 12.30 49.14 12.63 48.22 12.63C46.76 12.63 45.81 11.47 45.81 10.14C45.81 8.82 46.76 7.64 48.22 7.64C49.14 7.64 49.75 7.97 50.27 8.35L50.27 7.22C50.00 6.96 49.22 6.55 48.22 6.55ZM54.00 6.69L54.00 4.72L53.48 4.72C53.03 6.07 52.46 7.01 51.57 7.41L51.57 7.74L52.88 7.74L52.88 11.80C52.88 12.96 53.48 13.73 54.65 13.73C55.33 13.73 55.69 13.54 56.05 13.25L56.05 12.33C55.78 12.50 55.44 12.66 54.89 12.66C54.29 12.66 54.00 12.32 54.00 11.74L54.00 7.74L56 7.74L56 6.69Z"></path></g><!----><g data-v-423bf9ae="" id="6fbae23a-0807-461c-a583-488bb065164c" transform="matrix(1.0113918418054102,0,0,1.0113918418054102,-3.0933689136630917,-5.057115483773423)" stroke="none" fill="#1DC7DA"><circle cx="55.538" cy="19.677" r="4.901"></circle><circle cx="23.472" cy="42.596" r="4.9"></circle><circle cx="45.736" cy="65.145" r="4.901"></circle><circle cx="12.968" cy="82.662" r="4.901"></circle><circle cx="81.493" cy="25.552" r="4.901"></circle><circle cx="47.69" cy="89.1" r="4.9"></circle><path d="M12.968 83.811a1.163 1.163 0 0 1-.704-.24 1.171 1.171 0 0 1-.403-.6L4.046 56.078a1.15 1.15 0 0 1 .438-1.258l51.203-36.386a1.152 1.152 0 0 1 1.616 1.587L16.579 79.428l28.615-15.297a1.16 1.16 0 0 1 .542-.135h46.606l-11.85-37.638L58.655 7.024a1.15 1.15 0 0 1 1.524-1.722l22.075 19.545c.156.139.272.317.335.516L95.006 64.8c.109.348.047.729-.17 1.023a1.147 1.147 0 0 1-.927.471H46.024l-32.492 17.37a1.231 1.231 0 0 1-.564.147zm-6.486-27.59l6.912 23.785L51.75 24.053 6.482 56.221z"></path><path d="M45.737 66.295c-.077 0-.155-.008-.233-.023h-.002l-.047-.012c-.003 0-.004 0-.006-.002a1.14 1.14 0 0 1-.539-.312L10.716 31.75 6.281 55.965a1.15 1.15 0 0 1-2.262-.414l4.829-26.37a1.148 1.148 0 1 1 1.943-.606l34.292 34.292 9.896-42.656-28.495-7.184a1.148 1.148 0 0 1 .081-2.247l32.653-5.749a1.15 1.15 0 0 1 1.319 1.392l-2.81 12.109 24.046 6.062a1.152 1.152 0 0 1 .57 1.887L46.603 65.9a1.05 1.05 0 0 1-.224.197l-.001.002h-.002l-.001.002h-.001a.663.663 0 0 1-.049.031h-.001l-.002.002h-.002a1.136 1.136 0 0 1-.583.161zm11.472-45.522l-9.354 40.323 31.499-34.74-22.145-5.583zm-24.947-8.661l23.237 5.858 2.406-10.373-25.643 4.515z"></path><path d="M47.69 90.25c-.069 0-.14-.006-.21-.02l-34.722-6.439a1.15 1.15 0 0 1 .419-2.26l33.245 6.164-1.82-22.307-18.92-53.09a1.15 1.15 0 1 1 2.166-.772L46.819 64.76c.033.094.055.191.062.293l1.955 23.953a1.153 1.153 0 0 1-1.146 1.244z"></path><path d="M47.689 90.25a1.152 1.152 0 0 1-1.014-1.692l33.803-63.391a1.151 1.151 0 0 1 2.03 1.082L48.705 89.641a1.15 1.15 0 0 1-1.016.609z"></path></g><!----></svg>